<svg xmlns="http://www.w3.org/2000/svg" width="current" height="current" viewBox="0 0 36 36">
    <defs>
        <clipPath id="elveorjnba">
            <path style="fill:none" d="M0 0h32v32H0z"/>
        </clipPath>
    </defs>
    <g transform="translate(-98 -523)">
        <circle cx="14" cy="14" r="14" transform="translate(106 523)"
                style="fill:#fff4d3;opacity:.997"/>
        <g style="clip-path:url(#elveorjnba)" transform="translate(98 527)">
            <path d="M25.94 9.262a3.263 3.263 0 0 0-2.247-.954 3.275 3.275 0 1 0-5.586 2.4L10.7 18.1a3.282 3.282 0 1 0-2.394 5.6 3.275 3.275 0 1 0 5.585-2.4l7.409-7.4a3.282 3.282 0 0 0 4.64-4.638"
                  style="fill:#fff"/>
            <path d="M10.7 22.738a3.282 3.282 0 1 1 0-4.641l7.405-7.384a3.282 3.282 0 1 1 5.6-2.144"
                  style="stroke:#222;stroke-miterlimit:10;stroke-width:2px;fill:none"/>
            <path d="M8.3 23.431a3.282 3.282 0 1 0 5.6-2.144l7.4-7.387a3.282 3.282 0 1 0 0-4.642"
                  style="stroke:#222;stroke-miterlimit:10;stroke-width:2px;fill:none"/>
        </g>
    </g>
</svg>
