<svg xmlns="http://www.w3.org/2000/svg" width="current" height="current" viewBox="0 0 36 36">
    <g transform="translate(-164 -524)">
        <circle cx="14" cy="14" r="14" transform="translate(172 524)" style="fill:#dbf5ff"/>
        <g transform="translate(164 528)">
            <path d="M13.522 23.371V7.562A4.767 4.767 0 0 1 18.193 2.7a4.767 4.767 0 0 1 4.67 4.859v4.381" transform="translate(0 2)" style="stroke:#222;stroke-miterlimit:10;stroke-width:2px;fill:none"/>
            <path d="M19.758 27.861h-15a.461.461 0 0 1-.5-.412v-.48a3.012 3.012 0 0 1 3.253-2.689H17a3.012 3.012 0 0 1 3.253 2.689v.48a.461.461 0 0 1-.495.412z" transform="translate(1.266 -.382)" style="fill:#f4b88a;stroke:#222;stroke-miterlimit:10;stroke-width:2px"/>
            <path d="M27.5 15.414c.882 2.746-.889 5.771-.889 5.771s-3.2-1.428-4.083-4.174.889-5.771.889-5.771 3.2 1.428 4.083 4.174z" transform="translate(0 -1)" style="fill:#ffb5b5;stroke:#222;stroke-miterlimit:10;stroke-width:2px"/>
            <path d="M23.056 17.173c-1.062 2.682-4.35 3.9-4.35 3.9s-1.568-3.135-.506-5.817 4.35-3.9 4.35-3.9 1.568 3.135.506 5.817z" transform="translate(0 -1)" style="fill:#a2e6ff;stroke:#222;stroke-miterlimit:10;stroke-width:2px"/>
            <circle cx="2.562" cy="2.562" r="2.562" transform="translate(20.226 7.265)" style="fill:#fff;stroke:#222;stroke-miterlimit:10;stroke-width:2px"/>
        </g>
    </g>
</svg>
