<svg xmlns="http://www.w3.org/2000/svg" width="current" height="current" viewBox="0 0 36 36">
    <g transform="translate(-32 -524)">
        <circle cx="14" cy="14" r="14" transform="translate(40 524)" style="fill:#ffe2e0;opacity:.997"/>
        <g>
            <path d="M25.037 26.524H6.963c-1.624 0-2.809-2.254-2.4-4.559l1.663-9.3h19.545l1.663 9.3c.412 2.305-.773 4.559-2.397 4.559z" transform="translate(32 528.524)" style="stroke:#222;stroke-linecap:round;stroke-linejoin:round;stroke-width:2px;fill:#f39189"/>
            <path d="M6.814 10.787a2.605 2.605 0 0 1 2.554-2.655 2.485 2.485 0 0 1 1.712.7 2.723 2.723 0 0 1-.1-.7 2.607 2.607 0 0 1 2.554-2.656 2.533 2.533 0 0 1 2.23 1.384 3.389 3.389 0 0 1 2.036-.684 3.577 3.577 0 0 1 3.5 3.645 2.909 2.909 0 0 1 1.931-1.065 1.993 1.993 0 0 1 1.953 2.031v1.875H6.814z" transform="translate(32 528.524)" style="fill:#ba8e79;stroke:#222;stroke-linecap:round;stroke-linejoin:round;stroke-width:2px"/>
            <path d="M17.814 16.735a1.557 1.557 0 0 0-2.138-.06l-.52.466-.52-.466a1.558 1.558 0 0 0-2.215 2.183l2.734 2.742 2.734-2.738a1.558 1.558 0 0 0-.075-2.127z" transform="translate(32.845 529.179)" style="fill:#fff"/>
        </g>
    </g>
</svg>
