<svg xmlns="http://www.w3.org/2000/svg" width="current" height="current" viewBox="0 0 36 36">
    <g transform="translate(-164 -524)">
        <circle cx="14" cy="14" r="14" transform="translate(172 524)" style="fill:#dbf5ff"/>
        <g transform="translate(0 -1)">
            <path d="M5.317 10.863a1.946 1.946 0 1 1-1.945-1.945 1.945 1.945 0 0 1 1.945 1.945z"
                  transform="translate(167.553 533)"
                  style="stroke-miterlimit:10;stroke-width:2px;stroke:#a2e6ff;fill:#fff"/>
            <path d="m16.261 12.021-1.868-1.808v-4H7.3l-.017 4-1.864 1.808a2.665 2.665 0 0 0-.8 1.9v7.523a1.333 1.333 0 0 0 1.335 1.336h9.772a1.333 1.333 0 0 0 1.334-1.333v-7.523a2.665 2.665 0 0 0-.799-1.903z"
                  transform="translate(169 533)"
                  style="stroke:#222;fill:#a2e6ff;stroke-miterlimit:10;stroke-width:2px"/>
            <path transform="translate(179.84 534.121)"
                  style="fill:none;stroke:#222;stroke-miterlimit:10;stroke-width:2px" d="M0 0v5.091"/>
            <path d="M15.346 1H6.112L3.869 3.243" transform="translate(169 533)"
                  style="fill:none;stroke:#222;stroke-miterlimit:10;stroke-width:2px"/>
            <path d="M8.781 15.655a3.891 3.891 0 1 1-3.891-3.891 3.891 3.891 0 0 1 3.891 3.891z"
                  transform="translate(166.979 534.044)"
                  style="stroke:#222;stroke-miterlimit:10;stroke-width:2px;fill:#fff"/>
            <path d="M20.71 20.017a2.131 2.131 0 1 1-2.131-2.131 2.131 2.131 0 0 1 2.131 2.131z"
                  transform="translate(168.629 531.629)"
                  style="stroke:#222;stroke-miterlimit:10;stroke-width:2px;fill:#fff"/>
            <circle cx="2.005" cy="2.005" r="2.005" transform="translate(186.662 536.988)"
                    style="stroke-miterlimit:10;stroke-width:2px;stroke:#a2e6ff;fill:#fff"/>
        </g>
    </g>
</svg>
